<?xml version="1.0" encoding="iso-8859-1"?>
<!-- Generator: Adobe Illustrator 19.0.0, SVG Export Plug-In . SVG Version: 6.00 Build 0)  -->
<svg version="1.1" id="Layer_1" xmlns="http://www.w3.org/2000/svg" xmlns:xlink="http://www.w3.org/1999/xlink" x="0px" y="0px"
	 viewBox="0 0 512 512" style="enable-background:new 0 0 512 512;" xml:space="preserve">
<circle style="fill:#61ACD2;" cx="256" cy="256" r="243.81"/>
<path style="fill:#EFEFEF;" d="M256,451.048c-107.55,0-195.048-87.498-195.048-195.048S148.45,60.952,256,60.952
	S451.048,148.451,451.048,256S363.551,451.048,256,451.048z"/>
<polygon style="fill:#F4A026;" points="255.727,343.225 349.597,232.838 291.352,240.152 291.352,119.467 218.21,119.467 
	218.21,240.152 161.857,232.838 "/>
<path d="M256,0C114.842,0,0,114.842,0,256s114.842,256,256,256s256-114.842,256-256S397.158,0,256,0z M256,487.619
	C128.284,487.619,24.381,383.716,24.381,256S128.284,24.381,256,24.381S487.619,128.284,487.619,256S383.716,487.619,256,487.619z"
	/>
<path d="M256,48.762C141.729,48.762,48.762,141.729,48.762,256S141.729,463.238,256,463.238S463.238,370.271,463.238,256
	S370.271,48.762,256,48.762z M256,438.857c-100.827,0-182.857-82.03-182.857-182.857S155.173,73.143,256,73.143
	S438.857,155.173,438.857,256S356.827,438.857,256,438.857z"/>
<path d="M348.078,220.743l-44.535,5.593V119.467c0-6.733-5.459-12.19-12.19-12.19H218.21c-6.732,0-12.19,5.458-12.19,12.19v106.811
	l-42.594-5.528c-4.988-0.644-9.877,1.843-12.281,6.271c-2.404,4.428-1.838,9.878,1.425,13.716l93.872,110.387
	c2.316,2.723,5.712,4.294,9.287,4.294c3.574,0,6.971-1.57,9.287-4.294l93.87-110.387c3.257-3.831,3.829-9.27,1.437-13.694
	C357.931,222.619,353.075,220.108,348.078,220.743z M255.727,324.407l-64.133-75.416l25.047,3.251
	c3.483,0.45,6.981-0.617,9.616-2.932c2.634-2.315,4.144-5.651,4.144-9.157V131.657h48.762v108.495c0,3.497,1.502,6.828,4.125,9.142
	s6.11,3.391,9.584,2.954l27.114-3.405L255.727,324.407z"/>
<path d="M309.638,380.343H202.362c-6.732,0-12.19,5.458-12.19,12.19s5.459,12.19,12.19,12.19h107.276
	c6.732,0,12.19-5.458,12.19-12.19S316.37,380.343,309.638,380.343z"/>
<g>
</g>
<g>
</g>
<g>
</g>
<g>
</g>
<g>
</g>
<g>
</g>
<g>
</g>
<g>
</g>
<g>
</g>
<g>
</g>
<g>
</g>
<g>
</g>
<g>
</g>
<g>
</g>
<g>
</g>
</svg>
